<?xml version="1.0" encoding="UTF-8" standalone="no"?>
<svg
   xmlns:dc="http://purl.org/dc/elements/1.1/"
   xmlns:cc="http://creativecommons.org/ns#"
   xmlns:rdf="http://www.w3.org/1999/02/22-rdf-syntax-ns#"
   xmlns:svg="http://www.w3.org/2000/svg"
   xmlns="http://www.w3.org/2000/svg"
   viewBox="0 0 2188.0801 1388.6801"
   height="1388.6801"
   width="2188.0801"
   xml:space="preserve"
   id="svg2"
   version="1.1"><metadata
     id="metadata8"><rdf:RDF><cc:Work
         rdf:about=""><dc:format>image/svg+xml</dc:format><dc:type
           rdf:resource="http://purl.org/dc/dcmitype/StillImage" /></cc:Work></rdf:RDF></metadata><defs
     id="defs6"><clipPath
       id="clipPath18"
       clipPathUnits="userSpaceOnUse"><path
         id="path16"
         d="M 0,1041.509 H 1641.057 V 0 H 0 Z" /></clipPath></defs><g
     transform="matrix(1.3333333,0,0,-1.3333333,0,1388.68)"
     id="g10"><g
       id="g12"><g
         clip-path="url(#clipPath18)"
         id="g14"><g
           transform="translate(840.001,421.5627)"
           id="g20"><path
             id="path22"
             style="fill:#000000;fill-opacity:1;fill-rule:nonzero;stroke:none"
             d="m 0,0 h -54.67 c -13.02,9.13 -23.9,19.88 -34.28,27.34 -10.35,8.85 -21.99,9.84 -32.24,5.5 0.23,3.34 0.34,6.73 0.34,10.16 0,26.13 -6.06,49.42 -18.01,69.23 -5.81,9.62 -12.65,18.26 -20.46,25.84 3.87,-2.35 7.72,-4.85 11.55,-7.49 C -102.66,99.51 -74.48,68.93 -44.86,35.04 -31.02,19.21 -14.44,8.44 0,0" /></g><g
           transform="translate(878.4419,457.0352)"
           id="g24"><path
             id="path26"
             style="fill:#000000;fill-opacity:1;fill-rule:nonzero;stroke:none"
             d="m 0,0 c -14.15,0 -25.62,11.47 -25.62,25.62 0,14.15 11.47,25.61 25.62,25.61 14.14,0 25.61,-11.46 25.61,-25.61 C 25.61,11.47 14.14,0 0,0 m 530.73,89.06 c -169.05,0 -562.73,-0.66 -581.3,0.05 -2.61,0.1 -5.16,0.86 -7.41,2.2 l -85.06,50.99 c -26.25,16.92 -98.62,49.32 -102.55,50.65 -8.27,4.56 -12.19,17.09 -9.62,26.74 2.69,6.43 10.26,34.12 9.47,44.68 -5.14,-2.65 -19.34,-34.26 -24.1,-37.89 -8.33,-6.34 -15.78,-13.74 -22.9,-21.43 -1.01,-1.33 -2.08,-2.64 -3.19,-3.93 -1.88,-2.55 -3.73,-5.11 -5.55,-7.69 -6.41,-9.12 -12.65,-18.37 -19.51,-27.17 -0.66,-3.04 -0.97,-6.15 -1.09,-9.3 2.64,-3.5 -59.2,-9.95 -58.26,-14.24 0,0 87.02,-0.08 104.34,-0.08 12.65,0 51.31,-5.24 97.16,-36.83 45.85,-31.58 75.06,-63.05 105.33,-97.69 11.98,-13.71 26.2,-23.36 41.84,-32.49 6.24,-3.65 12.79,-6.16 19.77,-8.11 6.99,-1.94 16.44,-2.99 27.77,-2.99 h 91.24 198.34 c 95.77,1.3 350.96,3.17 423.67,44.73 0,0 -83.93,79.8 -198.39,79.8" /></g><text
           id="text30"
           style="font-variant:normal;font-weight:100;font-stretch:normal;font-size:500px;font-family:'MuseoModerno Thin';-inkscape-font-specification:MuseoModerno-Thin;writing-mode:lr-tb;fill:#000000;fill-opacity:1;fill-rule:nonzero;stroke:none"
           transform="matrix(1,0,0,-1,23.6025,605.6724)"><tspan
             id="tspan28"
             y="0"
             x="0 319.5 632.5 952 1071">doble</tspan></text>
<g
           transform="translate(652.6119,424.0553)"
           id="g32"><path
             id="path34"
             style="fill:#000000;fill-opacity:1;fill-rule:nonzero;stroke:none"
             d="m 0,0 c -7,-11.33 -16.34,-19.92 -28,-25.75 -11.68,-5.83 -24.68,-8.75 -39,-8.75 h -225.59 v 74.35 c 0,42.06 34.09,76.15 76.15,76.15 H -66.5 c 14,0 26.82,-3 38.5,-9 C -16.34,101 -7,92.42 0,81.25 7,70.08 10.5,56.5 10.5,40.5 10.5,24.83 7,11.33 0,0 m 36.54,102.5 c -10.67,17.67 -25,31.42 -43,41.25 -18,9.83 -38,14.75 -60,14.75 h -161.56 c -62.17,0 -112.57,-50.4 -112.57,-112.57 v -412.27 h 48 V -77 h 225.13 c 23,0 43.5,5 61.5,15 18,10 32.25,23.92 42.75,41.75 10.5,17.83 15.75,38.08 15.75,60.75 0,23.67 -5.33,44.33 -16,62" /></g><text
           id="text38"
           style="font-variant:normal;font-weight:100;font-stretch:normal;font-size:500px;font-family:'MuseoModerno Thin';-inkscape-font-specification:MuseoModerno-Thin;writing-mode:lr-tb;fill:#000000;fill-opacity:1;fill-rule:nonzero;stroke:none"
           transform="matrix(1,0,0,-1,276.0234,57.7134)"><tspan
             id="tspan36"
             y="0"
             x="0 119 431 742">lunt</tspan></text>
</g></g></g></svg>